<svg width="205" height="62" viewBox="0 0 205 62" fill="none" xmlns="http://www.w3.org/2000/svg">
<g clip-path="url(#clip0_19_295)">
<path fill-rule="evenodd" clip-rule="evenodd" d="M28.991 61.1913C12.9789 61.1913 0 48.2197 0 32.2165C0 16.2132 12.9789 3.24158 28.991 3.24158C45.0032 3.24158 57.9844 16.2132 57.9844 32.2165C57.9844 48.2197 45.0032 61.1913 28.991 61.1913ZM28.991 60.6156C13.2989 60.6156 0.576024 47.8999 0.576024 32.2165C0.576024 16.5308 13.2989 3.81729 28.991 3.81729C44.6855 3.81729 57.4061 16.5308 57.4061 32.2165C57.4061 47.8999 44.6855 60.6156 28.991 60.6156Z" fill="#00AAD3"/>
<mask id="mask0_19_295" style="mask-type:luminance" maskUnits="userSpaceOnUse" x="0" y="3" width="58" height="59">
<path fill-rule="evenodd" clip-rule="evenodd" d="M28.991 61.1913C12.9789 61.1913 0 48.2197 0 32.2165C0 16.2132 12.9789 3.24158 28.991 3.24158C45.0032 3.24158 57.9844 16.2132 57.9844 32.2165C57.9844 48.2197 45.0032 61.1913 28.991 61.1913ZM28.991 60.6156C13.2989 60.6156 0.576024 47.8999 0.576024 32.2165C0.576024 16.5308 13.2989 3.81729 28.991 3.81729C44.6855 3.81729 57.4061 16.5308 57.4061 32.2165C57.4061 47.8999 44.6855 60.6156 28.991 60.6156Z" fill="white"/>
</mask>
<g mask="url(#mask0_19_295)">
<path d="M28.991 59.1913C14.0824 59.1913 2 47.1141 2 32.2165H-2C-2 49.3253 11.8754 63.1913 28.991 63.1913V59.1913ZM2 32.2165C2 17.3188 14.0824 5.24158 28.991 5.24158V1.24158C11.8754 1.24158 -2 15.1076 -2 32.2165H2ZM28.991 5.24158C43.8999 5.24158 55.9844 17.3191 55.9844 32.2165H59.9844C59.9844 15.1074 46.1065 1.24158 28.991 1.24158V5.24158ZM55.9844 32.2165C55.9844 47.1139 43.8999 59.1913 28.991 59.1913V63.1913C46.1065 63.1913 59.9844 49.3255 59.9844 32.2165H55.9844ZM28.991 58.6156C14.4024 58.6156 2.57602 46.7942 2.57602 32.2165H-1.42398C-1.42398 49.0055 12.1954 62.6156 28.991 62.6156V58.6156ZM2.57602 32.2165C2.57602 17.6365 14.4023 5.81729 28.991 5.81729V1.81729C12.1955 1.81729 -1.42398 15.4251 -1.42398 32.2165H2.57602ZM28.991 5.81729C43.582 5.81729 55.4061 17.6364 55.4061 32.2165H59.4061C59.4061 15.4252 45.789 1.81729 28.991 1.81729V5.81729ZM55.4061 32.2165C55.4061 46.7943 43.5819 58.6156 28.991 58.6156V62.6156C45.7891 62.6156 59.4061 49.0054 59.4061 32.2165H55.4061Z" fill="#E2E8F0"/>
</g>
<path d="M28.9915 57.1403C42.7645 57.1403 53.9298 45.9813 53.9298 32.2159C53.9298 18.4505 42.7645 7.2915 28.9915 7.2915C15.2185 7.2915 4.05322 18.4505 4.05322 32.2159C4.05322 45.9813 15.2185 57.1403 28.9915 57.1403Z" fill="url(#paint0_linear_19_295)"/>
<path fill-rule="evenodd" clip-rule="evenodd" d="M28.9917 56.1495C15.7659 56.1495 5.04541 45.435 5.04541 32.2166C5.04541 18.9982 15.7659 8.28369 28.9917 8.28369C42.2174 8.28369 52.9379 18.9982 52.9379 32.2166C52.9379 45.435 42.2174 56.1495 28.9917 56.1495Z" fill="#1400D3"/>
<mask id="mask1_19_295" style="mask-type:luminance" maskUnits="userSpaceOnUse" x="5" y="8" width="48" height="49">
<path d="M28.9917 56.1495C15.7659 56.1495 5.04541 45.435 5.04541 32.2166C5.04541 18.9982 15.7659 8.28369 28.9917 8.28369C42.2174 8.28369 52.9379 18.9982 52.9379 32.2166C52.9379 45.435 42.2174 56.1495 28.9917 56.1495Z" fill="white"/>
</mask>
<g mask="url(#mask1_19_295)">
<path d="M43.1929 58.349C57.7625 58.349 69.5735 46.5446 69.5735 31.9831C69.5735 17.4216 57.7625 5.61719 43.1929 5.61719C28.6233 5.61719 16.8123 17.4216 16.8123 31.9831C16.8123 46.5446 28.6233 58.349 43.1929 58.349Z" fill="#00AAD3"/>
<path d="M50.8314 21.4369H7.19055V22.3365H50.8314V21.4369Z" fill="#FEFEFE"/>
<path d="M53.0317 32.2146H4.66833V33.1142H53.0317V32.2146Z" fill="#FEFEFE"/>
<path d="M50.8344 42.4792H7.22778V43.3789H50.8344V42.4792Z" fill="#FEFEFE"/>
<path d="M44.2193 45.9013C45.9312 45.9013 47.3189 44.5143 47.3189 42.8034C47.3189 41.0925 45.9312 39.7056 44.2193 39.7056C42.5075 39.7056 41.1198 41.0925 41.1198 42.8034C41.1198 44.5143 42.5075 45.9013 44.2193 45.9013Z" fill="#FEFEFE"/>
<path d="M37.0306 45.9013C38.7424 45.9013 40.1302 44.5143 40.1302 42.8034C40.1302 41.0925 38.7424 39.7056 37.0306 39.7056C35.3188 39.7056 33.931 41.0925 33.931 42.8034C33.931 44.5143 35.3188 45.9013 37.0306 45.9013Z" fill="#FEFEFE"/>
<path d="M29.6792 45.9013C31.391 45.9013 32.7787 44.5143 32.7787 42.8034C32.7787 41.0925 31.391 39.7056 29.6792 39.7056C27.9673 39.7056 26.5796 41.0925 26.5796 42.8034C26.5796 44.5143 27.9673 45.9013 29.6792 45.9013Z" fill="#FEFEFE"/>
<path d="M36.7965 35.7618C38.5083 35.7618 39.896 34.3749 39.896 32.664C39.896 30.9531 38.5083 29.5662 36.7965 29.5662C35.0846 29.5662 33.6969 30.9531 33.6969 32.664C33.6969 34.3749 35.0846 35.7618 36.7965 35.7618Z" fill="#FEFEFE"/>
<path d="M29.6073 35.7618C31.3191 35.7618 32.7068 34.3749 32.7068 32.664C32.7068 30.9531 31.3191 29.5662 29.6073 29.5662C27.8954 29.5662 26.5077 30.9531 26.5077 32.664C26.5077 34.3749 27.8954 35.7618 29.6073 35.7618Z" fill="#FEFEFE"/>
<path d="M22.2563 35.7618C23.9682 35.7618 25.3559 34.3749 25.3559 32.664C25.3559 30.9531 23.9682 29.5662 22.2563 29.5662C20.5445 29.5662 19.1567 30.9531 19.1567 32.664C19.1567 34.3749 20.5445 35.7618 22.2563 35.7618Z" fill="#FEFEFE"/>
<path d="M7.01131 35.7618C8.72316 35.7618 10.1109 34.3749 10.1109 32.664C10.1109 30.9531 8.72316 29.5662 7.01131 29.5662C5.29947 29.5662 3.91174 30.9531 3.91174 32.664C3.91174 34.3749 5.29947 35.7618 7.01131 35.7618Z" fill="#FEFEFE"/>
<path d="M44.1482 24.983C45.8601 24.983 47.2478 23.5961 47.2478 21.8852C47.2478 20.1743 45.8601 18.7874 44.1482 18.7874C42.4364 18.7874 41.0486 20.1743 41.0486 21.8852C41.0486 23.5961 42.4364 24.983 44.1482 24.983Z" fill="#FEFEFE"/>
<path d="M36.9571 24.983C38.669 24.983 40.0567 23.5961 40.0567 21.8852C40.0567 20.1743 38.669 18.7874 36.9571 18.7874C35.2453 18.7874 33.8575 20.1743 33.8575 21.8852C33.8575 23.5961 35.2453 24.983 36.9571 24.983Z" fill="#FEFEFE"/>
<path d="M29.606 24.983C31.3179 24.983 32.7056 23.5961 32.7056 21.8852C32.7056 20.1743 31.3179 18.7874 29.606 18.7874C27.8942 18.7874 26.5065 20.1743 26.5065 21.8852C26.5065 23.5961 27.8942 24.983 29.606 24.983Z" fill="#FEFEFE"/>
</g>
<path fill-rule="evenodd" clip-rule="evenodd" d="M13.4969 0L17.1908 14.4429L20.2904 25.4475L17.4057 14.3355L13.4969 0Z" fill="#FEFEFE"/>
<path fill-rule="evenodd" clip-rule="evenodd" d="M3.70508 10.1395L18.0326 14.286L29.0914 17.1988L18.0486 14.0461L3.70508 10.1395Z" fill="#FEFEFE"/>
<path fill-rule="evenodd" clip-rule="evenodd" d="M26.518 4.45239L15.9392 14.9613L8.02344 23.2131L16.1404 15.0915L26.518 4.45239Z" fill="#FEFEFE"/>
</g>
<g clip-path="url(#clip1_19_295)">
<path d="M85.6243 15.3846V19.011H80.2573V34.6154H76.3386V19.011H71V15.3846H85.6243Z" fill="#291843"/>
<path d="M95.2236 35C93.0086 35 91.1912 34.3956 89.7714 33.1868C88.3515 31.978 87.6416 30.3571 87.6416 28.3242V15.3846H91.532V28.022C91.532 29.0293 91.8254 29.826 92.4123 30.4121C93.0181 30.9982 93.9552 31.2912 95.2236 31.2912C96.492 31.2912 97.4196 30.9982 98.0065 30.4121C98.6123 29.826 98.9152 29.0293 98.9152 28.022V15.3846H102.834V28.3242C102.834 30.3571 102.124 31.978 100.704 33.1868C99.2843 34.3956 97.4575 35 95.2236 35Z" fill="#291843"/>
<path d="M117.269 34.6154L113.265 27.9396H110.283V34.6154H106.364V15.3846H114.315C116.152 15.3846 117.713 16.0073 119.001 17.2527C120.288 18.4982 120.932 20 120.932 21.7582C120.932 22.9487 120.581 24.0568 119.881 25.0824C119.181 26.0897 118.253 26.8498 117.098 27.3626L121.5 34.6154H117.269ZM110.283 18.9286V24.6154H114.315C115.054 24.6154 115.688 24.3407 116.218 23.7912C116.748 23.2234 117.013 22.5458 117.013 21.7582C117.013 20.9707 116.748 20.3022 116.218 19.7527C115.688 19.2033 115.054 18.9286 114.315 18.9286H110.283Z" fill="#291843"/>
<path d="M136.586 34.6154L135.393 31.1538H127.47L126.278 34.6154H122.047L129.004 15.3846H133.86L140.845 34.6154H136.586ZM128.72 27.6099H134.172L131.446 19.7527L128.72 27.6099Z" fill="#291843"/>
<path d="M154.276 15.3846H158.195V34.6154H155.213L146.694 22.8571V34.6154H142.775V15.3846H145.757L154.276 27.1154V15.3846Z" fill="#291843"/>
<path d="M185.707 32.1154C183.7 34.0385 181.258 35 178.381 35C175.503 35 173.061 34.0385 171.054 32.1154C169.066 30.174 168.073 27.8022 168.073 25C168.073 22.1978 169.066 19.8352 171.054 17.9121C173.061 15.9707 175.503 15 178.381 15C181.258 15 183.7 15.9707 185.707 17.9121C187.714 19.8352 188.717 22.1978 188.717 25C188.717 27.8022 187.714 30.174 185.707 32.1154ZM173.809 29.533C175.039 30.7051 176.563 31.2912 178.381 31.2912C180.198 31.2912 181.722 30.7051 182.953 29.533C184.183 28.3425 184.798 26.8315 184.798 25C184.798 23.1685 184.183 21.6575 182.953 20.467C181.722 19.2766 180.198 18.6813 178.381 18.6813C176.563 18.6813 175.039 19.2766 173.809 20.467C172.578 21.6575 171.963 23.1685 171.963 25C171.963 26.8315 172.578 28.3425 173.809 29.533Z" fill="#291843"/>
<path d="M197.537 35C195.568 35 193.912 34.5788 192.568 33.7363C191.224 32.8755 190.277 31.7125 189.728 30.2473L193.079 28.3516C193.855 30.3114 195.379 31.2912 197.651 31.2912C198.749 31.2912 199.553 31.0989 200.065 30.7143C200.576 30.3297 200.831 29.8443 200.831 29.2582C200.831 28.5806 200.519 28.0586 199.894 27.6923C199.269 27.3077 198.152 26.8956 196.543 26.456C195.654 26.1996 194.896 25.9432 194.272 25.6868C193.666 25.4304 193.051 25.0916 192.426 24.6703C191.82 24.2308 191.356 23.6813 191.034 23.022C190.713 22.3626 190.552 21.5934 190.552 20.7143C190.552 18.9744 191.186 17.5916 192.454 16.5659C193.742 15.522 195.284 15 197.083 15C198.692 15 200.102 15.3846 201.314 16.1538C202.545 16.9048 203.501 17.9579 204.182 19.3132L200.888 21.1539C200.093 19.5055 198.825 18.6813 197.083 18.6813C196.269 18.6813 195.625 18.8645 195.152 19.2308C194.698 19.5788 194.47 20.0366 194.47 20.6044C194.47 21.2088 194.726 21.7033 195.237 22.0879C195.767 22.4542 196.771 22.8571 198.247 23.2967C198.853 23.4798 199.307 23.6264 199.61 23.7363C199.932 23.8278 200.358 23.9835 200.888 24.2033C201.437 24.4048 201.854 24.5971 202.137 24.7802C202.44 24.9634 202.781 25.2106 203.16 25.522C203.538 25.8333 203.822 26.1538 204.012 26.4835C204.22 26.8132 204.39 27.2161 204.523 27.6923C204.674 28.1502 204.75 28.6538 204.75 29.2033C204.75 30.9799 204.078 32.3901 202.734 33.4341C201.409 34.478 199.676 35 197.537 35Z" fill="#291843"/>
</g>
<path d="M74.1699 44.7344V45.4229H72.251V49H71.375V44.7344H74.1699ZM71.9492 46.29H72.9453C73.2812 46.29 73.5703 46.3457 73.8125 46.457C74.0547 46.5684 74.2412 46.7246 74.3721 46.9258C74.5029 47.127 74.5684 47.3613 74.5684 47.6289C74.5684 47.832 74.5312 48.0176 74.457 48.1855C74.3828 48.3516 74.2744 48.4961 74.1318 48.6191C73.9912 48.7402 73.8213 48.834 73.6221 48.9004C73.4229 48.9668 73.1973 49 72.9453 49H71.375V44.7344H72.2568V48.3145H72.9453C73.1133 48.3145 73.252 48.2832 73.3613 48.2207C73.4707 48.1582 73.5527 48.0752 73.6074 47.9717C73.6641 47.8662 73.6924 47.75 73.6924 47.623C73.6924 47.502 73.6641 47.3926 73.6074 47.2949C73.5527 47.1953 73.4707 47.1172 73.3613 47.0605C73.252 47.0039 73.1133 46.9756 72.9453 46.9756H71.9492V46.29ZM76.4287 47.4531L77.4775 44.7344H78.4238L76.9619 48.1738C76.9111 48.291 76.8525 48.4033 76.7861 48.5107C76.7217 48.6162 76.6445 48.7109 76.5547 48.7949C76.4648 48.877 76.3574 48.9424 76.2324 48.9912C76.1074 49.0381 75.958 49.0615 75.7842 49.0615C75.7412 49.0615 75.6885 49.0605 75.626 49.0586C75.5635 49.0566 75.5137 49.0537 75.4766 49.0498L75.4707 48.3643C75.4941 48.3701 75.5312 48.374 75.582 48.376C75.6328 48.376 75.6699 48.376 75.6934 48.376C75.8086 48.376 75.8994 48.3594 75.9658 48.3262C76.0322 48.293 76.085 48.2461 76.124 48.1855C76.165 48.123 76.2012 48.0498 76.2324 47.9658L76.4287 47.4531ZM75.7344 44.7344L76.707 46.8467L76.9795 47.8164L76.3262 47.8281L74.791 44.7344H75.7344ZM79.6045 44.7344L80.4072 46.2227L81.21 44.7344H82.2148L80.9756 46.8496L82.2471 49H81.2334L80.4072 47.4824L79.5811 49H78.5615L79.8359 46.8496L78.5938 44.7344H79.6045ZM85.4902 44.7344V45.4229H83.5684V49H82.6924V44.7344H85.4902ZM87.1777 45.4639L86.0176 49H85.083L86.668 44.7344H87.2627L87.1777 45.4639ZM88.1416 49L86.9785 45.4639L86.8848 44.7344H87.4854L89.0791 49H88.1416ZM88.0889 47.4121V48.1006H85.8359V47.4121H88.0889ZM92.3721 44.7344V45.4229H90.251V44.7344H92.3721ZM92.999 44.7344V49H92.1201V44.7344H92.999ZM90.1396 44.7344H91.0156L90.9072 46.876C90.8916 47.1963 90.8613 47.4746 90.8164 47.7109C90.7734 47.9473 90.7148 48.1484 90.6406 48.3145C90.5664 48.4785 90.4746 48.6113 90.3652 48.7129C90.2578 48.8125 90.1309 48.8857 89.9844 48.9326C89.8379 48.9775 89.6709 49 89.4834 49H89.2666V48.3145L89.3779 48.3057C89.4736 48.2959 89.5576 48.2705 89.6299 48.2295C89.7021 48.1885 89.7637 48.127 89.8145 48.0449C89.8672 47.9629 89.9102 47.8584 89.9434 47.7314C89.9785 47.6025 90.0059 47.4453 90.0254 47.2598C90.0469 47.0742 90.0615 46.8574 90.0693 46.6094L90.1396 44.7344ZM95.583 44.7344V49H94.707V44.7344H95.583ZM96.8955 44.7344V45.4229H93.415V44.7344H96.8955ZM100.259 48.3145V49H97.9883V48.3145H100.259ZM98.2754 44.7344V49H97.3965V44.7344H98.2754ZM99.9629 46.4717V47.1396H97.9883V46.4717H99.9629ZM100.256 44.7344V45.4229H97.9883V44.7344H100.256ZM102.433 47.4795H101.346V46.7939H102.433C102.601 46.7939 102.737 46.7666 102.843 46.7119C102.948 46.6553 103.025 46.5771 103.074 46.4775C103.123 46.3779 103.147 46.2656 103.147 46.1406C103.147 46.0137 103.123 45.8955 103.074 45.7861C103.025 45.6768 102.948 45.5889 102.843 45.5225C102.737 45.4561 102.601 45.4229 102.433 45.4229H101.65V49H100.771V44.7344H102.433C102.767 44.7344 103.053 44.7949 103.291 44.916C103.531 45.0352 103.715 45.2002 103.842 45.4111C103.969 45.6221 104.032 45.8633 104.032 46.1348C104.032 46.4102 103.969 46.6484 103.842 46.8496C103.715 47.0508 103.531 47.2061 103.291 47.3154C103.053 47.4248 102.767 47.4795 102.433 47.4795ZM107.111 47.585H107.987C107.97 47.8721 107.891 48.127 107.75 48.3496C107.611 48.5723 107.417 48.7461 107.167 48.8711C106.919 48.9961 106.62 49.0586 106.271 49.0586C105.997 49.0586 105.752 49.0117 105.535 48.918C105.318 48.8223 105.133 48.6855 104.979 48.5078C104.826 48.3301 104.71 48.1152 104.63 47.8633C104.55 47.6113 104.51 47.3291 104.51 47.0166V46.7207C104.51 46.4082 104.551 46.126 104.633 45.874C104.717 45.6201 104.836 45.4043 104.99 45.2266C105.146 45.0488 105.333 44.9121 105.55 44.8164C105.767 44.7207 106.009 44.6729 106.276 44.6729C106.632 44.6729 106.932 44.7373 107.176 44.8662C107.422 44.9951 107.612 45.1729 107.747 45.3994C107.884 45.626 107.966 45.8838 107.993 46.1729H107.114C107.104 46.001 107.07 45.8555 107.012 45.7363C106.953 45.6152 106.864 45.5244 106.745 45.4639C106.628 45.4014 106.472 45.3701 106.276 45.3701C106.13 45.3701 106.002 45.3975 105.893 45.4521C105.783 45.5068 105.691 45.5898 105.617 45.7012C105.543 45.8125 105.487 45.9531 105.45 46.123C105.415 46.291 105.397 46.4883 105.397 46.7148V47.0166C105.397 47.2373 105.414 47.4316 105.447 47.5996C105.48 47.7656 105.531 47.9062 105.6 48.0215C105.67 48.1348 105.76 48.2207 105.869 48.2793C105.98 48.3359 106.114 48.3643 106.271 48.3643C106.454 48.3643 106.605 48.335 106.725 48.2764C106.844 48.2178 106.935 48.1309 106.997 48.0156C107.062 47.9004 107.1 47.7568 107.111 47.585ZM109.446 44.7344V49H108.567V44.7344H109.446ZM111.96 44.7344L110.325 47.2393H109.25L109.139 46.457H109.856L110.894 44.7344H111.96ZM111.055 49L109.859 47.0928L110.469 46.4658L112.098 49H111.055ZM114.178 45.4639L113.018 49H112.083L113.668 44.7344H114.263L114.178 45.4639ZM115.142 49L113.979 45.4639L113.885 44.7344H114.485L116.079 49H115.142ZM115.089 47.4121V48.1006H112.836V47.4121H115.089ZM118.742 47.4502H117.582L117.286 47.3271C116.952 47.2217 116.696 47.0635 116.519 46.8525C116.343 46.6416 116.255 46.373 116.255 46.0469C116.255 45.7598 116.318 45.5195 116.445 45.3262C116.574 45.1309 116.756 44.9834 116.99 44.8838C117.227 44.7842 117.507 44.7344 117.831 44.7344H119.319V49H118.438V45.4229H117.831C117.591 45.4229 117.414 45.4824 117.301 45.6016C117.188 45.7207 117.131 45.8896 117.131 46.1084C117.131 46.2686 117.157 46.4004 117.21 46.5039C117.263 46.6055 117.34 46.6816 117.441 46.7324C117.543 46.7812 117.671 46.8057 117.825 46.8057H118.739L118.742 47.4502ZM117.896 47.0957L116.949 49H115.997L116.946 47.0957H117.896ZM122.413 44.7344V49H121.534V44.7344H122.413ZM124.927 44.7344L123.292 47.2393H122.217L122.105 46.457H122.823L123.86 44.7344H124.927ZM124.021 49L122.826 47.0928L123.436 46.4658L125.064 49H124.021ZM128.82 46.7676V46.9697C128.82 47.2939 128.776 47.585 128.688 47.8428C128.601 48.1006 128.477 48.3203 128.316 48.502C128.156 48.6816 127.965 48.8193 127.742 48.915C127.521 49.0107 127.276 49.0586 127.007 49.0586C126.739 49.0586 126.494 49.0107 126.271 48.915C126.051 48.8193 125.859 48.6816 125.697 48.502C125.535 48.3203 125.409 48.1006 125.319 47.8428C125.231 47.585 125.188 47.2939 125.188 46.9697V46.7676C125.188 46.4414 125.231 46.1504 125.319 45.8945C125.407 45.6367 125.531 45.417 125.691 45.2354C125.854 45.0537 126.045 44.915 126.266 44.8193C126.488 44.7236 126.733 44.6758 127.001 44.6758C127.271 44.6758 127.516 44.7236 127.736 44.8193C127.959 44.915 128.15 45.0537 128.311 45.2354C128.473 45.417 128.598 45.6367 128.686 45.8945C128.775 46.1504 128.82 46.4414 128.82 46.7676ZM127.933 46.9697V46.7617C127.933 46.5352 127.912 46.3359 127.871 46.1641C127.83 45.9922 127.77 45.8477 127.689 45.7305C127.609 45.6133 127.512 45.5254 127.396 45.4668C127.281 45.4062 127.149 45.376 127.001 45.376C126.853 45.376 126.721 45.4062 126.605 45.4668C126.492 45.5254 126.396 45.6133 126.315 45.7305C126.237 45.8477 126.178 45.9922 126.137 46.1641C126.096 46.3359 126.075 46.5352 126.075 46.7617V46.9697C126.075 47.1943 126.096 47.3936 126.137 47.5674C126.178 47.7393 126.238 47.8848 126.318 48.0039C126.398 48.1211 126.496 48.21 126.611 48.2705C126.727 48.3311 126.858 48.3613 127.007 48.3613C127.155 48.3613 127.287 48.3311 127.402 48.2705C127.518 48.21 127.614 48.1211 127.692 48.0039C127.771 47.8848 127.83 47.7393 127.871 47.5674C127.912 47.3936 127.933 47.1943 127.933 46.9697ZM129.854 44.7344H130.599L131.694 47.8662L132.79 44.7344H133.534L131.993 49H131.396L129.854 44.7344ZM129.453 44.7344H130.194L130.329 47.7871V49H129.453V44.7344ZM133.194 44.7344H133.938V49H133.06V47.7871L133.194 44.7344ZM138.184 44.7344V49H137.305V45.4229H135.591V49H134.712V44.7344H138.184ZM140.686 45.4639L139.525 49H138.591L140.176 44.7344H140.771L140.686 45.4639ZM141.649 49L140.486 45.4639L140.393 44.7344H140.993L142.587 49H141.649ZM141.597 47.4121V48.1006H139.344V47.4121H141.597ZM145.827 46.4717V47.1572H143.601V46.4717H145.827ZM143.861 44.7344V49H142.982V44.7344H143.861ZM146.454 44.7344V49H145.578V44.7344H146.454ZM148.065 47.6172L149.779 44.7344H150.658V49H149.779V46.1172L148.065 49H147.187V44.7344H148.065V47.6172ZM153.688 47.4502H152.527L152.231 47.3271C151.897 47.2217 151.642 47.0635 151.464 46.8525C151.288 46.6416 151.2 46.373 151.2 46.0469C151.2 45.7598 151.264 45.5195 151.391 45.3262C151.52 45.1309 151.701 44.9834 151.936 44.8838C152.172 44.7842 152.452 44.7344 152.776 44.7344H154.265V49H153.383V45.4229H152.776C152.536 45.4229 152.359 45.4824 152.246 45.6016C152.133 45.7207 152.076 45.8896 152.076 46.1084C152.076 46.2686 152.103 46.4004 152.155 46.5039C152.208 46.6055 152.285 46.6816 152.387 46.7324C152.488 46.7812 152.616 46.8057 152.771 46.8057H153.685L153.688 47.4502ZM152.841 47.0957L151.895 49H150.942L151.892 47.0957H152.841Z" fill="#535353"/>
<defs>
<linearGradient id="paint0_linear_19_295" x1="28.9915" y1="57.1403" x2="28.9915" y2="7.2915" gradientUnits="userSpaceOnUse">
<stop stop-color="#4BD2F2"/>
<stop offset="0.364583" stop-color="#B9E2EC"/>
<stop offset="1" stop-color="#00AAD3"/>
</linearGradient>
<clipPath id="clip0_19_295">
<rect width="58" height="62" fill="white"/>
</clipPath>
<clipPath id="clip1_19_295">
<rect width="134" height="20" fill="white" transform="translate(71 15)"/>
</clipPath>
</defs>
</svg>
